<?xml version="1.0" standalone="no"?>
<!DOCTYPE svg PUBLIC "-//W3C//DTD SVG 20010904//EN"
 "http://www.w3.org/TR/2001/REC-SVG-20010904/DTD/svg10.dtd">
<svg version="1.0" xmlns="http://www.w3.org/2000/svg"
 width="512.000000pt" height="512.000000pt" viewBox="0 0 512.000000 512.000000"
 preserveAspectRatio="xMidYMid meet">
<metadata>
Created by potrace 1.11, written by Peter Selinger 2001-2013
</metadata>
<g transform="translate(0.000000,512.000000) scale(0.100000,-0.100000)"
fill="#000000" stroke="none">
<path d="M4385 4924 c-27 -9 -576 -178 -1220 -376 -643 -198 -1183 -368 -1200
-378 -46 -29 -92 -81 -114 -130 -20 -45 -21 -59 -21 -1452 0 -775 -2 -1408 -4
-1408 -3 0 -44 13 -93 29 -139 47 -227 62 -393 68 -129 4 -175 2 -276 -15
-144 -25 -343 -88 -433 -139 -80 -44 -199 -161 -228 -224 -64 -137 -47 -291
44 -411 83 -108 227 -191 439 -252 163 -47 272 -60 450 -54 386 13 723 166
826 376 l33 67 3 1062 2 1062 128 40 c280 88 2016 622 2038 627 l24 6 0 -756
c0 -416 -2 -756 -4 -756 -2 0 -51 15 -108 34 -161 54 -280 70 -472 63 -312
-11 -587 -102 -740 -247 -83 -79 -122 -147 -136 -238 -38 -233 127 -428 453
-537 166 -55 257 -69 457 -70 213 0 307 16 507 87 189 67 316 166 380 296 l28
57 3 1685 2 1685 -30 61 c-46 94 -120 143 -228 150 -45 2 -84 -1 -117 -12z"/>
</g>
</svg>
